<svg width="36" height="36" viewBox="0 0 36 36" fill="none" xmlns="http://www.w3.org/2000/svg">
<path fill-rule="evenodd" clip-rule="evenodd" d="M18 0C8.05887 0 0 8.05887 0 18C0 27.9411 8.05887 36 18 36C27.9411 36 36 27.9411 36 18C36 8.05887 27.9411 0 18 0ZM7.5 17.9702C7.5 12.1969 12.2102 7.5 17.9998 7.5C23.7895 7.5 28.4998 12.1969 28.4998 17.9702C28.4998 18.7881 28.4315 19.4502 28.2786 20.1148L28.2763 20.1258C28.2759 20.1278 28.2001 20.4341 28.1581 20.5678C27.8987 21.3954 27.4288 22.0847 26.7994 22.5611C26.189 23.0233 25.4321 23.2778 24.6683 23.2778C24.5739 23.2778 24.4789 23.274 24.3858 23.2665C23.3011 23.1797 22.3474 22.6106 21.7626 21.703C20.7568 22.7115 19.4223 23.2663 17.9998 23.2663C15.0714 23.2663 12.6888 20.8905 12.6888 17.9702C12.6888 15.05 15.0714 12.6742 17.9998 12.6742C20.9283 12.6742 23.3109 15.05 23.3109 17.9702V19.6774C23.3153 20.6736 23.9856 21.0808 24.5583 21.1268C25.1281 21.1707 25.8864 20.8397 26.1505 19.7595C26.2808 19.1671 26.347 18.565 26.347 17.9702C26.347 13.3805 22.6025 9.64659 17.9998 9.64659C13.3972 9.64659 9.65272 13.3805 9.65272 17.9702C9.65272 22.5599 13.3972 26.2939 17.9998 26.2939C19.602 26.2939 21.1602 25.8376 22.506 24.9743L22.53 24.9588L23.9446 26.5987L23.9142 26.6195C22.1662 27.8108 20.121 28.4405 17.9998 28.4405C12.2102 28.4405 7.5 23.7436 7.5 17.9702Z" fill="black"/>
<path fill-rule="evenodd" clip-rule="evenodd" d="M21.1579 17.9702C21.1579 19.7068 19.7411 21.1197 17.9996 21.1197C16.2581 21.1197 14.8413 19.7068 14.8413 17.9702C14.8413 16.2336 16.2581 14.8209 17.9996 14.8209C19.7411 14.8209 21.1579 16.2336 21.1579 17.9702Z" fill="black"/>
</svg>
